# xmcd
#
# Track frame offsets:
#	150
#	16749
#	36323
#	54747
#	75728
#	96256
#	119278
#	140356
#	161023
#	182847
#	198722
#	217968
#
# Disc length: 3099 seconds
#
# Revision: 21
# Processed by: cddbd v1.5.2PL0 Copyright (c) Steve Scherf et al.
# Submitted via: Jack! The Knife 20 Magnifico
#
DISCID=a60c190c
DTITLE=Accept - Objection Overruled
DYEAR=1993
DGENRE=Metal
TTITLE0=Objection Overruled
TTITLE1=I Don't Wanna Be Like You
TTITLE2=Protectors Of Terror
TTITLE3=Slaves To Metal
TTITLE4=All Or Nothing
TTITLE5=Bulletproof
TTITLE6=Amamos La Vida
TTITLE7=Sick, Dirty And Mean
TTITLE8=Donation
TTITLE9=Just By My Own
TTITLE10=This One's For You
TTITLE11=Rich And Famous
EXTD=Accept
EXTT0=Dirkschneider, Hoffman, Baltes, Kaufmann
EXTT1=Dirkschneider, Hoffman, Baltes, Kaufmann
EXTT2=Dirkschneider, Hoffman, Baltes, Kaufmann
EXTT3=Dirkschneider, Hoffman, Baltes, Kaufmann
EXTT4=Dirkschneider, Hoffman, Baltes, Kaufmann
EXTT5=Dirkschneider, Hoffman, Baltes, Kaufmann
EXTT6=Dirkschneider, Hoffman, Baltes, Kaufmann
EXTT7=Dirkschneider, Hoffman, Baltes, Kaufmann
EXTT8=Dirkschneider, Hoffman, Baltes, Kaufmann
EXTT9=Dirkschneider, Hoffman, Baltes, Kaufmann
EXTT10=Dirkschneider, Hoffman, Baltes, Kaufmann
EXTT11=Dirkschneider, Hoffman, Baltes, Kaufmann
PLAYORDER=
